<mxfile host="app.diagrams.net" modified="2023-09-04T19:12:01.246Z" agent="Mozilla/5.0 (X11; Linux x86_64) AppleWebKit/537.36 (KHTML, like Gecko) Chrome/114.0.0.0 Safari/537.36" version="21.6.9" etag="AhOF5mkWy1B7vm--xP8m" type="github">
  <diagram name="PÃ¡gina-1" id="nimwpz_m2VdiLPQlG_Fb">
    <mxGraphModel>
      <root>
        <mxCell id="0" />
        <mxCell id="1" parent="0" />
      </root>
    </mxGraphModel>
  </diagram>
</mxfile>
